<svg xmlns="http://www.w3.org/2000/svg" xmlns:xlink="http://www.w3.org/1999/xlink" width="33" height="33" viewBox="0 0 33 33"><defs><style>.a{fill:#fff;}.b{clip-path:url(#a);}</style><clipPath id="a"><rect class="a" width="33" height="33"/></clipPath></defs><g class="b"><g transform="translate(5.216 0)"><path class="a" d="M20.3,35.107l-1.947-3.42q-1.935-3.408-3.879-6.824-1.449-2.541-2.889-5.082a12.082,12.082,0,0,1-1.061-2.3,9.751,9.751,0,0,1-.079-5.533A9.718,9.718,0,0,1,28.308,9.871a9.757,9.757,0,0,1-.166,9.618c-.76,1.3-1.528,2.581-2.288,3.879q-2.007,3.408-4.021,6.816c-.918,1.559-1.844,3.119-2.763,4.686-.047.079-.095.166-.142.245a.793.793,0,0,0,1.369.8c.7-1.187,1.393-2.367,2.1-3.554l4.132-7.006c.958-1.615,1.908-3.238,2.866-4.853a11.472,11.472,0,0,0,1.2-9.278,11.332,11.332,0,0,0-8.913-7.789A11.472,11.472,0,0,0,10.5,8.177a11.347,11.347,0,0,0-.641,11.787c.673,1.243,1.393,2.454,2.09,3.681q1.995,3.515,4,7.029c.942,1.662,1.892,3.325,2.834,4.987.047.087.095.174.142.253C19.426,36.794,20.8,35.994,20.3,35.107Z" transform="translate(-8.515 -3.296)"/><g transform="translate(6.279 4.985)"><path class="a" d="M23.218,13.291a3.43,3.43,0,1,1-2.779-3.372,3.484,3.484,0,0,1,2.779,3.372.792.792,0,0,0,1.583,0,5.083,5.083,0,0,0-3.325-4.718,5.013,5.013,0,1,0,3.317,4.718A.788.788,0,0,0,23.218,13.291Z" transform="translate(-14.793 -8.281)"/></g></g></g></svg>