<svg xmlns="http://www.w3.org/2000/svg" width="54.835" height="44.533" viewBox="0 0 54.835 44.533"><defs><style>.a{fill:#fff;}</style></defs><g transform="translate(0 -48.096)"><g transform="translate(0 48.096)"><path class="a" d="M52.314,91.022H51.4V67.192a7.456,7.456,0,0,0,3.434-6.274.8.8,0,0,0-.106-.4L48.355,49.366a2.526,2.526,0,0,0-2.188-1.27H8.668a2.526,2.526,0,0,0-2.188,1.27L.106,60.52a.8.8,0,0,0-.106.4,7.456,7.456,0,0,0,3.434,6.274v23.83H2.52a.8.8,0,0,0,0,1.606H52.314a.8.8,0,0,0,0-1.606ZM1.662,61.722H4.237a.8.8,0,1,0,0-1.606H2.187l5.687-9.952a.916.916,0,0,1,.793-.46h37.5a.916.916,0,0,1,.793.46l5.687,9.952H50.6a.8.8,0,0,0,0,1.606h2.576a5.85,5.85,0,0,1-11.589,0h5.579a.8.8,0,1,0,0-1.606H7.672a.8.8,0,1,0,0,1.606h5.579a5.85,5.85,0,0,1-11.589,0Zm38.2,0a5.849,5.849,0,0,1-11.587,0Zm-13.307,0a5.849,5.849,0,0,1-11.587,0ZM45.5,91.022h-8.7V88.336h8.7Zm0-4.293h-8.7V72.024h8.7Zm4.293,4.293H47.108v-19.8a.8.8,0,0,0-.8-.8H36a.8.8,0,0,0-.8.8v19.8H5.041V67.971a7.449,7.449,0,0,0,9.07-3.688,7.455,7.455,0,0,0,13.307,0,7.455,7.455,0,0,0,13.307,0,7.449,7.449,0,0,0,9.07,3.688Z" transform="translate(0 -48.096)"/></g><g transform="translate(7.727 70.418)"><path class="a" d="M96.128,256.516H72.948a.8.8,0,0,0-.8.8v16.312a.8.8,0,0,0,.8.8h23.18a.8.8,0,0,0,.8-.8V257.319A.8.8,0,0,0,96.128,256.516Zm-.8,16.312H73.751V258.122H95.325Z" transform="translate(-72.145 -256.516)"/></g></g></svg>